<svg width="28" height="24" viewBox="0 0 28 24" fill="none" xmlns="http://www.w3.org/2000/svg">
<path d="M25.6675 10.3334H5.90081L11.9508 3.06672C12.2337 2.72636 12.3698 2.28756 12.3292 1.84685C12.2885 1.40614 12.0745 0.999617 11.7341 0.716719C11.3938 0.433822 10.955 0.297718 10.5143 0.338351C10.0736 0.378984 9.66704 0.593025 9.38415 0.933386L1.05081 10.9334C0.994748 11.0129 0.944613 11.0965 0.900814 11.1834C0.900814 11.2667 0.900814 11.3167 0.784147 11.4001C0.708603 11.5912 0.669049 11.7946 0.66748 12.0001C0.669049 12.2055 0.708603 12.409 0.784147 12.6001C0.784147 12.6834 0.784147 12.7334 0.900814 12.8167C0.944613 12.9036 0.994748 12.9872 1.05081 13.0667L9.38415 23.0667C9.54085 23.2549 9.73708 23.4062 9.95889 23.5099C10.1807 23.6136 10.4226 23.6671 10.6675 23.6667C11.0569 23.6675 11.4343 23.5319 11.7341 23.2834C11.9029 23.1435 12.0424 22.9716 12.1447 22.7777C12.2469 22.5838 12.3099 22.3716 12.33 22.1533C12.3502 21.935 12.327 21.7149 12.262 21.5056C12.1969 21.2962 12.0912 21.1018 11.9508 20.9334L5.90081 13.6667H25.6675C26.1095 13.6667 26.5334 13.4911 26.846 13.1786C27.1586 12.866 27.3341 12.4421 27.3341 12.0001C27.3341 11.558 27.1586 11.1341 26.846 10.8215C26.5334 10.509 26.1095 10.3334 25.6675 10.3334Z" fill="white"/>
</svg>
