<svg width="28" height="28" viewBox="0 0 28 28" fill="none" xmlns="http://www.w3.org/2000/svg">
<path fill-rule="evenodd" clip-rule="evenodd" d="M23.4762 18V10C23.4762 8.62499 23.2251 7.32813 22.7229 6.10938C22.2207 4.89062 21.5326 3.82813 20.6587 2.92188C19.7848 2.01562 18.7603 1.30208 17.585 0.781248C16.4098 0.260416 15.1593 0 13.8334 0C12.5075 0 11.2569 0.260416 10.0817 0.781248C8.90647 1.30208 7.88193 2.01562 7.00804 2.92188C6.13415 3.82813 5.4461 4.89062 4.94386 6.10938C4.44163 7.32813 4.19052 8.62499 4.19052 10V18L0.333374 26H11.1213C11.3222 26.5833 11.6687 27.0625 12.1609 27.4375C12.6531 27.8125 13.2106 28 13.8334 28C14.4561 28 15.0136 27.8125 15.5058 27.4375C15.998 27.0625 16.3445 26.5833 16.5454 26H27.3334L23.4762 18Z" fill="#253334"/>
</svg>
