<svg width="34" height="36" viewBox="0 0 34 36" fill="none" xmlns="http://www.w3.org/2000/svg">
<path d="M7.79169 12H8.50002V12.75C8.50002 13.1478 8.64928 13.5294 8.91495 13.8107C9.18063 14.092 9.54096 14.25 9.91669 14.25C10.2924 14.25 10.6527 14.092 10.9184 13.8107C11.1841 13.5294 11.3334 13.1478 11.3334 12.75V12H12.0417C12.4174 12 12.7777 11.842 13.0434 11.5607C13.3091 11.2794 13.4584 10.8978 13.4584 10.5C13.4584 10.1022 13.3091 9.72064 13.0434 9.43934C12.7777 9.15804 12.4174 9 12.0417 9H11.3334V8.25C11.3334 7.85218 11.1841 7.47064 10.9184 7.18934C10.6527 6.90804 10.2924 6.75 9.91669 6.75C9.54096 6.75 9.18063 6.90804 8.91495 7.18934C8.64928 7.47064 8.50002 7.85218 8.50002 8.25V9H7.79169C7.41596 9 7.05563 9.15804 6.78995 9.43934C6.52428 9.72064 6.37502 10.1022 6.37502 10.5C6.37502 10.8978 6.52428 11.2794 6.78995 11.5607C7.05563 11.842 7.41596 12 7.79169 12ZM6.91335 28.68C7.17878 28.9594 7.53784 29.1162 7.9121 29.1162C8.28637 29.1162 8.64542 28.9594 8.91085 28.68L9.91669 27.615L10.9225 28.68C11.188 28.9594 11.547 29.1162 11.9213 29.1162C12.2955 29.1162 12.6546 28.9594 12.92 28.68C13.1839 28.399 13.332 28.0188 13.332 27.6225C13.332 27.2262 13.1839 26.846 12.92 26.565L11.9142 25.5L12.92 24.435C13.1521 24.148 13.2734 23.7789 13.2596 23.4014C13.2458 23.0239 13.098 22.6658 12.8457 22.3987C12.5934 22.1315 12.2552 21.975 11.8987 21.9604C11.5421 21.9459 11.1935 22.0743 10.9225 22.32L9.91669 23.385L8.91085 22.32C8.63984 22.0743 8.29124 21.9459 7.93469 21.9604C7.57815 21.975 7.23994 22.1315 6.98764 22.3987C6.73534 22.6658 6.58753 23.0239 6.57376 23.4014C6.55999 23.7789 6.68127 24.148 6.91335 24.435L7.91919 25.5L6.91335 26.565C6.6495 26.846 6.5014 27.2262 6.5014 27.6225C6.5014 28.0188 6.6495 28.399 6.91335 28.68ZM28.3334 1.5H5.66669C4.53952 1.5 3.45851 1.97411 2.66148 2.81802C1.86445 3.66193 1.41669 4.80653 1.41669 6V30C1.41669 31.1935 1.86445 32.3381 2.66148 33.182C3.45851 34.0259 4.53952 34.5 5.66669 34.5H28.3334C29.4605 34.5 30.5415 34.0259 31.3386 33.182C32.1356 32.3381 32.5834 31.1935 32.5834 30V6C32.5834 4.80653 32.1356 3.66193 31.3386 2.81802C30.5415 1.97411 29.4605 1.5 28.3334 1.5ZM15.5834 31.5H5.66669C5.29096 31.5 4.93063 31.342 4.66495 31.0607C4.39928 30.7794 4.25002 30.3978 4.25002 30V19.5H15.5834V31.5ZM15.5834 16.5H4.25002V6C4.25002 5.60218 4.39928 5.22064 4.66495 4.93934C4.93063 4.65804 5.29096 4.5 5.66669 4.5H15.5834V16.5ZM29.75 30C29.75 30.3978 29.6008 30.7794 29.3351 31.0607C29.0694 31.342 28.7091 31.5 28.3334 31.5H18.4167V19.5H29.75V30ZM29.75 16.5H18.4167V4.5H28.3334C28.7091 4.5 29.0694 4.65804 29.3351 4.93934C29.6008 5.22064 29.75 5.60218 29.75 6V16.5ZM21.9584 24.75H26.2084C26.5841 24.75 26.9444 24.592 27.2101 24.3107C27.4758 24.0294 27.625 23.6478 27.625 23.25C27.625 22.8522 27.4758 22.4706 27.2101 22.1893C26.9444 21.908 26.5841 21.75 26.2084 21.75H21.9584C21.5826 21.75 21.2223 21.908 20.9566 22.1893C20.6909 22.4706 20.5417 22.8522 20.5417 23.25C20.5417 23.6478 20.6909 24.0294 20.9566 24.3107C21.2223 24.592 21.5826 24.75 21.9584 24.75ZM26.2084 9H21.9584C21.5826 9 21.2223 9.15804 20.9566 9.43934C20.6909 9.72064 20.5417 10.1022 20.5417 10.5C20.5417 10.8978 20.6909 11.2794 20.9566 11.5607C21.2223 11.842 21.5826 12 21.9584 12H26.2084C26.5841 12 26.9444 11.842 27.2101 11.5607C27.4758 11.2794 27.625 10.8978 27.625 10.5C27.625 10.1022 27.4758 9.72064 27.2101 9.43934C26.9444 9.15804 26.5841 9 26.2084 9ZM21.9584 29.25H26.2084C26.5841 29.25 26.9444 29.092 27.2101 28.8107C27.4758 28.5294 27.625 28.1478 27.625 27.75C27.625 27.3522 27.4758 26.9706 27.2101 26.6893C26.9444 26.408 26.5841 26.25 26.2084 26.25H21.9584C21.5826 26.25 21.2223 26.408 20.9566 26.6893C20.6909 26.9706 20.5417 27.3522 20.5417 27.75C20.5417 28.1478 20.6909 28.5294 20.9566 28.8107C21.2223 29.092 21.5826 29.25 21.9584 29.25Z" fill="#253334"/>
</svg>
