<svg width="26" height="30" viewBox="0 0 26 30" fill="none" xmlns="http://www.w3.org/2000/svg">
<path fill-rule="evenodd" clip-rule="evenodd" d="M23.7454 30H1.97878C1.44286 30 0.979086 29.7953 0.58745 29.3858C0.195815 28.9763 0 28.4914 0 27.9311V5.17244C0 4.59054 0.195815 4.10024 0.58745 3.70153C0.979086 3.30282 1.44286 3.10347 1.97878 3.10347H3.95756V4.13795C3.95756 5.00003 4.24613 5.73278 4.82328 6.33623C5.40042 6.93968 6.10123 7.2414 6.92573 7.2414C7.75022 7.2414 8.45104 6.93968 9.02818 6.33623C9.60533 5.73278 9.8939 5.00003 9.8939 4.13795V3.10347H15.8302V4.13795C15.8302 5.00003 16.1188 5.73278 16.696 6.33623C17.2731 6.93968 17.9739 7.2414 18.7984 7.2414C19.6229 7.2414 20.3237 6.93968 20.9009 6.33623C21.478 5.73278 21.7666 5.00003 21.7666 4.13795V3.10347H23.7454C24.2813 3.10347 24.7451 3.30282 25.1367 3.70153C25.5283 4.10024 25.7241 4.59054 25.7241 5.17244V27.9311C25.7241 28.4914 25.5283 28.9763 25.1367 29.3858C24.7451 29.7953 24.2813 30 23.7454 30ZM23.7453 10.3448H1.97874V27.931H23.7453V10.3448ZM6.92573 15.5172H3.95756V12.4137H6.92573V15.5172ZM6.92573 20.6897H3.95756V17.5863H6.92573V20.6897ZM6.92573 25.8621H3.95756V22.7587H6.92573V25.8621ZM11.8727 15.5172H8.9045V12.4137H11.8727V15.5172ZM11.8727 20.6897H8.9045V17.5863H11.8727V20.6897ZM11.8727 25.8621H8.9045V22.7587H11.8727V25.8621ZM16.8196 15.5172H13.8514V12.4137H16.8196V15.5172ZM16.8196 20.6897H13.8514V17.5863H16.8196V20.6897ZM16.8196 25.8621H13.8514V22.7587H16.8196V25.8621ZM21.7666 15.5172H18.7984V12.4137H21.7666V15.5172ZM21.7666 20.6897H18.7984V17.5863H21.7666V20.6897ZM21.7666 25.8621H18.7984V22.7587H21.7666V25.8621ZM18.7675 6.2069C18.2316 6.2069 17.7729 6.00754 17.3916 5.60884C17.0103 5.21013 16.8196 4.73061 16.8196 4.17026V2.03664C16.8196 1.47629 17.0103 0.99677 17.3916 0.598059C17.7729 0.199353 18.2316 0 18.7675 0C19.3034 0 19.762 0.199353 20.1434 0.598059C20.5247 0.99677 20.7153 1.47629 20.7153 2.03664V4.17026C20.7153 4.73061 20.5247 5.21013 20.1434 5.60884C19.762 6.00754 19.3034 6.2069 18.7675 6.2069ZM6.8948 6.2069C6.35887 6.2069 5.90025 6.00754 5.51892 5.60884C5.1376 5.21013 4.94693 4.73061 4.94693 4.17026V2.03664C4.94693 1.47629 5.1376 0.99677 5.51892 0.598059C5.90025 0.199353 6.35887 0 6.8948 0C7.43072 0 7.88934 0.199353 8.27067 0.598059C8.65199 0.99677 8.84266 1.47629 8.84266 2.03664V4.17026C8.84266 4.73061 8.65199 5.21013 8.27067 5.60884C7.88934 6.00754 7.43072 6.2069 6.8948 6.2069Z" fill="#253334"/>
</svg>
