<svg width="29" height="34" viewBox="0 0 29 34" fill="none" xmlns="http://www.w3.org/2000/svg">
<path fill-rule="evenodd" clip-rule="evenodd" d="M1.79102 24.1611C1.79102 24.4298 1.61386 24.6472 1.39551 24.6472C1.17715 24.6472 1 24.4298 1 24.1611V5.73872C1 4.10893 2.07879 2.78297 3.40477 2.78297H4.01451V2.18088C4.01451 1.52967 4.44545 1 4.97527 1H5.70984C6.23965 1 6.67059 1.52967 6.67059 2.18088V2.78297H9.29372V2.18088C9.29372 1.52967 9.72466 1 10.2545 1H10.989C11.5189 1 11.9498 1.52967 11.9498 2.18088V2.78297H14.5731V2.18088C14.5731 1.52967 15.0041 1 15.5337 1H16.2685C16.7983 1 17.2292 1.52967 17.2292 2.18088V2.78297H19.8523V2.18088C19.8523 1.52967 20.2833 1 20.8129 1H21.5477C22.0775 1 22.5084 1.52967 22.5084 2.18088V2.78297H23.5456C24.8714 2.78297 25.9502 4.10893 25.9502 5.73872V15.346C25.9502 15.6147 25.7732 15.8322 25.5546 15.8322C25.3363 15.8322 25.1591 15.6147 25.1591 15.346V10.0024H1.79102V24.1611ZM20.8133 1.97225C20.7198 1.97225 20.6436 2.06593 20.6436 2.18088V4.54264C20.6436 4.65784 20.7198 4.75127 20.8133 4.75127H21.5481C21.6416 4.75127 21.7176 4.65759 21.7176 4.54264V2.18088C21.7176 2.06593 21.6416 1.97225 21.5481 1.97225H20.8133ZM15.3643 2.18088C15.3643 2.06593 15.4403 1.97225 15.5338 1.97225H16.2686C16.3621 1.97225 16.4383 2.06593 16.4383 2.18088V4.54264C16.4383 4.65759 16.3621 4.75127 16.2686 4.75127H15.5338C15.4403 4.75127 15.3643 4.65784 15.3643 4.54264V2.18088ZM10.2547 1.97225C10.1612 1.97225 10.085 2.06593 10.085 2.18088V4.54264C10.085 4.65784 10.1612 4.75127 10.2547 4.75127H10.9895C11.083 4.75127 11.1592 4.65759 11.1592 4.54264V2.18088C11.1592 2.06593 11.083 1.97225 10.9895 1.97225H10.2547ZM4.80566 2.18088C4.80566 2.06593 4.88188 1.97225 4.9754 1.97225H5.71018C5.8037 1.97225 5.87971 2.06593 5.87971 2.18088V4.54264C5.87971 4.65759 5.8037 4.75127 5.71018 4.75127H4.9754C4.88188 4.75127 4.80566 4.65784 4.80566 4.54264V2.18088ZM4.01451 3.75524H3.40477C2.51488 3.75524 1.79102 4.64495 1.79102 5.73873V9.03021H25.1593V5.73873C25.1593 4.64495 24.4355 3.75524 23.5456 3.75524H22.5084V4.54266C22.5084 5.19387 22.0775 5.72354 21.5479 5.72354H20.8131C20.2833 5.72354 19.8523 5.19387 19.8523 4.54266V3.75524H17.2292V4.54266C17.2292 5.19387 16.7983 5.72354 16.2687 5.72354H15.5339C15.0041 5.72354 14.5731 5.19387 14.5731 4.54266V3.75524H11.95V4.54266C11.95 5.19387 11.5191 5.72354 10.9893 5.72354H10.2545C9.72486 5.72354 9.29392 5.19387 9.29392 4.54266V3.75524H6.67059V4.54266C6.67059 5.19387 6.23965 5.72354 5.71004 5.72354H4.97527C4.44545 5.72354 4.01451 5.19387 4.01451 4.54266V3.75524Z" fill="#253334"/>
<path d="M4.01451 2.78297V2.93297H4.16451V2.78297H4.01451ZM6.67059 2.78297H6.52059V2.93297H6.67059V2.78297ZM9.29372 2.78297V2.93297H9.44372V2.78297H9.29372ZM11.9498 2.78297H11.7998V2.93297H11.9498V2.78297ZM14.5731 2.78297V2.93297H14.7231V2.78297H14.5731ZM17.2292 2.78297H17.0792V2.93297H17.2292V2.78297ZM19.8523 2.78297V2.93297H20.0023V2.78297H19.8523ZM22.5084 2.78297H22.3584V2.93297H22.5084V2.78297ZM25.1591 10.0024H25.3091V9.85245H25.1591V10.0024ZM1.79102 10.0024V9.85245H1.64102V10.0024H1.79102ZM4.01451 3.75524H4.16451V3.60524H4.01451V3.75524ZM1.79102 9.03021H1.64102V9.18021H1.79102V9.03021ZM25.1593 9.03021V9.18021H25.3093V9.03021H25.1593ZM22.5084 3.75524V3.60524H22.3584V3.75524H22.5084ZM19.8523 3.75524H20.0023V3.60524H19.8523V3.75524ZM17.2292 3.75524V3.60524H17.0792V3.75524H17.2292ZM14.5731 3.75524H14.7231V3.60524H14.5731V3.75524ZM11.95 3.75524V3.60524H11.8V3.75524H11.95ZM9.29392 3.75524H9.44392V3.60524H9.29392V3.75524ZM6.67059 3.75524V3.60524H6.52059V3.75524H6.67059ZM1.39551 24.7972C1.7241 24.7972 1.94102 24.4822 1.94102 24.1611H1.64102C1.64102 24.3773 1.50363 24.4972 1.39551 24.4972V24.7972ZM0.85 24.1611C0.85 24.4822 1.06692 24.7972 1.39551 24.7972V24.4972C1.28739 24.4972 1.15 24.3773 1.15 24.1611H0.85ZM0.85 5.73872V24.1611H1.15V5.73872H0.85ZM3.40477 2.63297C1.96851 2.63297 0.85 4.05649 0.85 5.73872H1.15C1.15 4.16137 2.18907 2.93297 3.40477 2.93297V2.63297ZM4.01451 2.63297H3.40477V2.93297H4.01451V2.63297ZM3.86451 2.18088V2.78297H4.16451V2.18088H3.86451ZM4.97527 0.85C4.33517 0.85 3.86451 1.47723 3.86451 2.18088H4.16451C4.16451 1.58212 4.55573 1.15 4.97527 1.15V0.85ZM5.70984 0.85H4.97527V1.15H5.70984V0.85ZM6.82059 2.18088C6.82059 1.47723 6.34993 0.85 5.70984 0.85V1.15C6.12937 1.15 6.52059 1.58212 6.52059 2.18088H6.82059ZM6.82059 2.78297V2.18088H6.52059V2.78297H6.82059ZM9.29372 2.63297H6.67059V2.93297H9.29372V2.63297ZM9.14372 2.18088V2.78297H9.44372V2.18088H9.14372ZM10.2545 0.85C9.61438 0.85 9.14372 1.47723 9.14372 2.18088H9.44372C9.44372 1.58212 9.83494 1.15 10.2545 1.15V0.85ZM10.989 0.85H10.2545V1.15H10.989V0.85ZM12.0998 2.18088C12.0998 1.47723 11.6291 0.85 10.989 0.85V1.15C11.4086 1.15 11.7998 1.58212 11.7998 2.18088H12.0998ZM12.0998 2.78297V2.18088H11.7998V2.78297H12.0998ZM14.5731 2.63297H11.9498V2.93297H14.5731V2.63297ZM14.4231 2.18088V2.78297H14.7231V2.18088H14.4231ZM15.5337 0.85C14.8938 0.85 14.4231 1.47726 14.4231 2.18088H14.7231C14.7231 1.58209 15.1144 1.15 15.5337 1.15V0.85ZM16.2685 0.85H15.5337V1.15H16.2685V0.85ZM17.3792 2.18088C17.3792 1.47723 16.9086 0.85 16.2685 0.85V1.15C16.688 1.15 17.0792 1.58212 17.0792 2.18088H17.3792ZM17.3792 2.78297V2.18088H17.0792V2.78297H17.3792ZM19.8523 2.63297H17.2292V2.93297H19.8523V2.63297ZM19.7023 2.18088V2.78297H20.0023V2.18088H19.7023ZM20.8129 0.85C20.173 0.85 19.7023 1.47726 19.7023 2.18088H20.0023C20.0023 1.58209 20.3936 1.15 20.8129 1.15V0.85ZM21.5477 0.85H20.8129V1.15H21.5477V0.85ZM22.6584 2.18088C22.6584 1.47723 22.1878 0.85 21.5477 0.85V1.15C21.9672 1.15 22.3584 1.58212 22.3584 2.18088H22.6584ZM22.6584 2.78297V2.18088H22.3584V2.78297H22.6584ZM23.5456 2.63297H22.5084V2.93297H23.5456V2.63297ZM26.1002 5.73872C26.1002 4.0565 24.9817 2.63297 23.5456 2.63297V2.93297C24.7611 2.93297 25.8002 4.16136 25.8002 5.73872H26.1002ZM26.1002 15.346V5.73872H25.8002V15.346H26.1002ZM25.5546 15.9822C25.8835 15.9822 26.1002 15.6671 26.1002 15.346H25.8002C25.8002 15.5622 25.6629 15.6822 25.5546 15.6822V15.9822ZM25.0091 15.346C25.0091 15.6672 25.2261 15.9822 25.5546 15.9822V15.6822C25.4465 15.6822 25.3091 15.5622 25.3091 15.346H25.0091ZM25.0091 10.0024V15.346H25.3091V10.0024H25.0091ZM1.79102 10.1524H25.1591V9.85245H1.79102V10.1524ZM1.94102 24.1611V10.0024H1.64102V24.1611H1.94102ZM20.7936 2.18088C20.7936 2.1559 20.802 2.13766 20.8097 2.12813C20.8173 2.11883 20.8194 2.12225 20.8133 2.12225V1.82225C20.6095 1.82225 20.4936 2.01349 20.4936 2.18088H20.7936ZM20.7936 4.54264V2.18088H20.4936V4.54264H20.7936ZM20.8133 4.60127C20.8193 4.60127 20.8172 4.60463 20.8097 4.59544C20.802 4.58601 20.7936 4.56781 20.7936 4.54264H20.4936C20.4936 4.71041 20.6096 4.90127 20.8133 4.90127V4.60127ZM21.5481 4.60127H20.8133V4.90127H21.5481V4.60127ZM21.5676 4.54264C21.5676 4.56773 21.5592 4.58599 21.5515 4.59549C21.544 4.60473 21.5419 4.60127 21.5481 4.60127V4.90127C21.7521 4.90127 21.8676 4.70978 21.8676 4.54264H21.5676ZM21.5676 2.18088V4.54264H21.8676V2.18088H21.5676ZM21.5481 2.12225C21.5419 2.12225 21.544 2.11879 21.5515 2.12803C21.5592 2.13753 21.5676 2.15579 21.5676 2.18088H21.8676C21.8676 2.01375 21.7521 1.82225 21.5481 1.82225V2.12225ZM20.8133 2.12225H21.5481V1.82225H20.8133V2.12225ZM15.5338 1.82225C15.3298 1.82225 15.2143 2.01375 15.2143 2.18088H15.5143C15.5143 2.15579 15.5227 2.13753 15.5304 2.12803C15.5379 2.11879 15.54 2.12225 15.5338 2.12225V1.82225ZM16.2686 1.82225H15.5338V2.12225H16.2686V1.82225ZM16.5883 2.18088C16.5883 2.01349 16.4724 1.82225 16.2686 1.82225V2.12225C16.2624 2.12225 16.2646 2.11883 16.2722 2.12813C16.2799 2.13766 16.2883 2.1559 16.2883 2.18088H16.5883ZM16.5883 4.54264V2.18088H16.2883V4.54264H16.5883ZM16.2686 4.90127C16.4724 4.90127 16.5883 4.71003 16.5883 4.54264H16.2883C16.2883 4.56763 16.2799 4.58587 16.2722 4.5954C16.2646 4.60469 16.2624 4.60127 16.2686 4.60127V4.90127ZM15.5338 4.90127H16.2686V4.60127H15.5338V4.90127ZM15.2143 4.54264C15.2143 4.71016 15.3299 4.90127 15.5338 4.90127V4.60127C15.5399 4.60127 15.5378 4.60467 15.5303 4.59554C15.5227 4.58613 15.5143 4.56791 15.5143 4.54264H15.2143ZM15.2143 2.18088V4.54264H15.5143V2.18088H15.2143ZM10.235 2.18088C10.235 2.1559 10.2434 2.13766 10.2511 2.12813C10.2587 2.11883 10.2609 2.12225 10.2547 2.12225V1.82225C10.0509 1.82225 9.93496 2.01349 9.93496 2.18088H10.235ZM10.235 4.54264V2.18088H9.93496V4.54264H10.235ZM10.2547 4.60127C10.2607 4.60127 10.2586 4.60463 10.2511 4.59544C10.2434 4.58601 10.235 4.56781 10.235 4.54264H9.93496C9.93496 4.71041 10.051 4.90127 10.2547 4.90127V4.60127ZM10.9895 4.60127H10.2547V4.90127H10.9895V4.60127ZM11.0092 4.54264C11.0092 4.56763 11.0008 4.58587 10.9931 4.5954C10.9855 4.60469 10.9833 4.60127 10.9895 4.60127V4.90127C11.1933 4.90127 11.3092 4.71003 11.3092 4.54264H11.0092ZM11.0092 2.18088V4.54264H11.3092V2.18088H11.0092ZM10.9895 2.12225C10.9833 2.12225 10.9855 2.11883 10.9931 2.12813C11.0008 2.13766 11.0092 2.1559 11.0092 2.18088H11.3092C11.3092 2.01349 11.1933 1.82225 10.9895 1.82225V2.12225ZM10.2547 2.12225H10.9895V1.82225H10.2547V2.12225ZM4.9754 1.82225C4.7716 1.82225 4.65566 2.01349 4.65566 2.18088H4.95566C4.95566 2.1559 4.96406 2.13766 4.97182 2.12813C4.97938 2.11883 4.98156 2.12225 4.9754 2.12225V1.82225ZM5.71018 1.82225H4.9754V2.12225H5.71018V1.82225ZM6.02972 2.18088C6.02972 2.01375 5.91419 1.82225 5.71018 1.82225V2.12225C5.70399 2.12225 5.70608 2.11879 5.71359 2.12803C5.7213 2.13753 5.72971 2.15579 5.72971 2.18088H6.02972ZM6.02972 4.54264V2.18088H5.72971V4.54264H6.02972ZM5.71018 4.90127C5.91419 4.90127 6.02972 4.70978 6.02972 4.54264H5.72971C5.72971 4.56773 5.7213 4.58599 5.71359 4.59549C5.70608 4.60473 5.70399 4.60127 5.71018 4.60127V4.90127ZM4.9754 4.90127H5.71018V4.60127H4.9754V4.90127ZM4.65566 4.54264C4.65566 4.71041 4.77171 4.90127 4.9754 4.90127V4.60127C4.98142 4.60127 4.97926 4.60463 4.97178 4.59544C4.9641 4.58601 4.95566 4.56781 4.95566 4.54264H4.65566ZM4.65566 2.18088V4.54264H4.95566V2.18088H4.65566ZM3.40477 3.90524H4.01451V3.60524H3.40477V3.90524ZM1.94102 5.73873C1.94102 4.69739 2.62516 3.90524 3.40477 3.90524V3.60524C2.4046 3.60524 1.64102 4.59251 1.64102 5.73873H1.94102ZM1.94102 9.03021V5.73873H1.64102V9.03021H1.94102ZM25.1593 8.88021H1.79102V9.18021H25.1593V8.88021ZM25.0093 5.73873V9.03021H25.3093V5.73873H25.0093ZM23.5456 3.90524C24.3252 3.90524 25.0093 4.69739 25.0093 5.73873H25.3093C25.3093 4.59251 24.5458 3.60524 23.5456 3.60524V3.90524ZM22.5084 3.90524H23.5456V3.60524H22.5084V3.90524ZM22.6584 4.54266V3.75524H22.3584V4.54266H22.6584ZM21.5479 5.87354C22.1878 5.87354 22.6584 5.24629 22.6584 4.54266H22.3584C22.3584 5.14145 21.9672 5.57354 21.5479 5.57354V5.87354ZM20.8131 5.87354H21.5479V5.57354H20.8131V5.87354ZM19.7023 4.54266C19.7023 5.24631 20.173 5.87354 20.8131 5.87354V5.57354C20.3936 5.57354 20.0023 5.14143 20.0023 4.54266H19.7023ZM19.7023 3.75524V4.54266H20.0023V3.75524H19.7023ZM17.2292 3.90524H19.8523V3.60524H17.2292V3.90524ZM17.3792 4.54266V3.75524H17.0792V4.54266H17.3792ZM16.2687 5.87354C16.9086 5.87354 17.3792 5.24629 17.3792 4.54266H17.0792C17.0792 5.14145 16.688 5.57354 16.2687 5.57354V5.87354ZM15.5339 5.87354H16.2687V5.57354H15.5339V5.87354ZM14.4231 4.54266C14.4231 5.24631 14.8938 5.87354 15.5339 5.87354V5.57354C15.1143 5.57354 14.7231 5.14143 14.7231 4.54266H14.4231ZM14.4231 3.75524V4.54266H14.7231V3.75524H14.4231ZM11.95 3.90524H14.5731V3.60524H11.95V3.90524ZM12.1 4.54266V3.75524H11.8V4.54266H12.1ZM10.9893 5.87354C11.6293 5.87354 12.1 5.24631 12.1 4.54266H11.8C11.8 5.14143 11.4088 5.57354 10.9893 5.57354V5.87354ZM10.2545 5.87354H10.9893V5.57354H10.2545V5.87354ZM9.14392 4.54266C9.14392 5.24629 9.61456 5.87354 10.2545 5.87354V5.57354C9.83516 5.57354 9.44392 5.14145 9.44392 4.54266H9.14392ZM9.14392 3.75524V4.54266H9.44392V3.75524H9.14392ZM6.67059 3.90524H9.29392V3.60524H6.67059V3.90524ZM6.82059 4.54266V3.75524H6.52059V4.54266H6.82059ZM5.71004 5.87354C6.34995 5.87354 6.82059 5.24629 6.82059 4.54266H6.52059C6.52059 5.14145 6.12936 5.57354 5.71004 5.57354V5.87354ZM4.97527 5.87354H5.71004V5.57354H4.97527V5.87354ZM3.86451 4.54266C3.86451 5.24631 4.33517 5.87354 4.97527 5.87354V5.57354C4.55573 5.57354 4.16451 5.14143 4.16451 4.54266H3.86451ZM3.86451 3.75524V4.54266H4.16451V3.75524H3.86451Z" fill="#253334"/>
<path d="M5.47768 29.1682H2.02894C1.89772 29.1682 1.79102 29.0371 1.79102 28.8758V26.3765C1.79102 26.1079 1.61386 25.8904 1.39551 25.8904C1.17715 25.8904 1 26.1079 1 26.3765V28.8758C1 29.5731 1.46163 30.1405 2.02894 30.1405H5.47768C5.69604 30.1405 5.87319 29.9227 5.87319 29.6543C5.87319 29.3857 5.69604 29.1682 5.47768 29.1682Z" fill="#253334" stroke="#253334" stroke-width="0.3"/>
<path d="M5.46465 11.42H4.08984C3.87149 11.42 3.69434 11.6378 3.69434 11.9062C3.69434 12.1748 3.87149 12.3923 4.08984 12.3923H5.46465C5.683 12.3923 5.86015 12.1748 5.86015 11.9062C5.86015 11.6378 5.683 11.42 5.46465 11.42Z" fill="#253334"/>
<path d="M8.31445 12.3923H9.68925C9.90761 12.3923 10.0848 12.1748 10.0848 11.9062C10.0848 11.6378 9.90761 11.42 9.68925 11.42H8.31445C8.0961 11.42 7.91895 11.6378 7.91895 11.9062C7.91895 12.1748 8.0961 12.3923 8.31445 12.3923Z" fill="#253334"/>
<path d="M12.5396 12.3923H13.9141C14.1325 12.3923 14.3097 12.1748 14.3097 11.9062C14.3097 11.6378 14.1325 11.42 13.9141 11.42H12.5396C12.321 11.42 12.144 11.6378 12.144 11.9062C12.144 12.1748 12.321 12.3923 12.5396 12.3923Z" fill="#253334"/>
<path d="M16.7642 12.3923H18.139C18.3573 12.3923 18.5345 12.1748 18.5345 11.9062C18.5345 11.6378 18.3573 11.42 18.139 11.42H16.7642C16.5458 11.42 16.3687 11.6378 16.3687 11.9062C16.3687 12.1748 16.5458 12.3923 16.7642 12.3923Z" fill="#253334"/>
<path d="M22.3639 11.42H20.9893C20.7707 11.42 20.5938 11.6378 20.5938 11.9062C20.5938 12.1748 20.7707 12.3923 20.9893 12.3923H22.3639C22.5822 12.3923 22.7594 12.1748 22.7594 11.9062C22.7594 11.6378 22.5822 11.42 22.3639 11.42Z" fill="#253334"/>
<path d="M5.46465 13.8646H4.08984C3.87149 13.8646 3.69434 14.0821 3.69434 14.3507C3.69434 14.6194 3.87149 14.8369 4.08984 14.8369H5.46465C5.683 14.8369 5.86015 14.6194 5.86015 14.3507C5.86015 14.0821 5.683 13.8646 5.46465 13.8646Z" fill="#253334"/>
<path d="M8.31445 14.8369H9.68925C9.90761 14.8369 10.0848 14.6194 10.0848 14.3507C10.0848 14.0821 9.90761 13.8646 9.68925 13.8646H8.31445C8.0961 13.8646 7.91895 14.0821 7.91895 14.3507C7.91895 14.6194 8.0961 14.8369 8.31445 14.8369Z" fill="#253334"/>
<path d="M12.5396 14.8369H13.9141C14.1325 14.8369 14.3097 14.6194 14.3097 14.3507C14.3097 14.0821 14.1325 13.8646 13.9141 13.8646H12.5396C12.321 13.8646 12.144 14.0821 12.144 14.3507C12.144 14.6194 12.321 14.8369 12.5396 14.8369Z" fill="#253334"/>
<path d="M16.7642 14.8369H18.139C18.3573 14.8369 18.5345 14.6194 18.5345 14.3507C18.5345 14.0821 18.3573 13.8646 18.139 13.8646H16.7642C16.5458 13.8646 16.3687 14.0821 16.3687 14.3507C16.3687 14.6194 16.5458 14.8369 16.7642 14.8369Z" fill="#253334"/>
<path d="M22.3639 13.8646H20.9893C20.7707 13.8646 20.5938 14.0821 20.5938 14.3507C20.5938 14.6194 20.7707 14.8369 20.9893 14.8369H22.3639C22.5822 14.8369 22.7594 14.6194 22.7594 14.3507C22.7594 14.0821 22.5822 13.8646 22.3639 13.8646Z" fill="#253334"/>
<path d="M8.32413 24.3804L10.3577 26.8799C10.6519 27.2414 11.0428 27.4404 11.4589 27.4404C11.875 27.4404 12.2662 27.2414 12.5602 26.8799L18.1292 20.0349C18.7365 19.2885 18.7365 18.0739 18.1292 17.3275C17.522 16.5811 16.5338 16.5811 15.9265 17.3275L11.4589 22.8187L10.5266 21.673C9.91955 20.9266 8.9314 20.9266 8.32392 21.673C7.71686 22.4194 7.71686 23.634 8.32413 24.3804Z" fill="#253334"/>
<path d="M8.32413 24.3804L10.3577 26.8799C10.6519 27.2414 11.0428 27.4404 11.4589 27.4404C11.875 27.4404 12.2662 27.2414 12.5602 26.8799L18.1292 20.0349C18.7365 19.2885 18.7365 18.0739 18.1292 17.3275C17.522 16.5811 16.5338 16.5811 15.9265 17.3275L11.4589 22.8187L10.5266 21.673C9.91955 20.9266 8.9314 20.9266 8.32392 21.673C7.71686 22.4194 7.71686 23.634 8.32413 24.3804Z" fill="#253334"/>
<path fill-rule="evenodd" clip-rule="evenodd" d="M25.95 17.5614V21.4406C27.1957 22.6207 27.9999 24.4723 27.9999 26.5505C27.9999 30.1068 25.646 33 22.7526 33C20.9394 33 19.3382 31.8639 18.3954 30.1405H7.27979C7.06143 30.1405 6.88428 29.9227 6.88428 29.6543C6.88428 29.3857 7.06143 29.1682 7.27979 29.1682H17.9573C17.667 28.3676 17.5053 27.482 17.5053 26.5505C17.5053 22.9942 19.8592 20.1009 22.7526 20.1009C23.6194 20.1009 24.4378 20.361 25.159 20.8205V17.5614C25.159 17.2928 25.3362 17.0753 25.5545 17.0753C25.7731 17.0753 25.95 17.2928 25.95 17.5614ZM18.2964 26.5505C18.2964 29.5708 20.2953 32.0277 22.7526 32.0277C25.2097 32.0277 27.2089 29.5708 27.2089 26.5505C27.2089 23.5302 25.2097 21.0732 22.7526 21.0732C20.2956 21.0732 18.2964 23.5302 18.2964 26.5505Z" fill="#253334"/>
<path d="M25.95 21.4406H25.8V21.5051L25.8469 21.5495L25.95 21.4406ZM18.3954 30.1405L18.527 30.0685L18.4843 29.9905H18.3954V30.1405ZM17.9573 29.1682V29.3182H18.1712L18.0983 29.1171L17.9573 29.1682ZM25.159 20.8205L25.0784 20.947L25.309 21.094V20.8205H25.159ZM26.1 21.4406V17.5614H25.8V21.4406H26.1ZM28.1499 26.5505C28.1499 24.4349 27.3314 22.5426 26.0532 21.3317L25.8469 21.5495C27.0599 22.6987 27.8499 24.5097 27.8499 26.5505H28.1499ZM22.7526 33.15C25.7563 33.15 28.1499 30.1592 28.1499 26.5505H27.8499C27.8499 30.0543 25.5357 32.85 22.7526 32.85V33.15ZM18.2638 30.2124C19.2265 31.9721 20.8723 33.15 22.7526 33.15V32.85C21.0066 32.85 19.45 31.7557 18.527 30.0685L18.2638 30.2124ZM7.27979 30.2905H18.3954V29.9905H7.27979V30.2905ZM6.73428 29.6543C6.73428 29.9752 6.95115 30.2905 7.27979 30.2905V29.9905C7.17171 29.9905 7.03428 29.8703 7.03428 29.6543H6.73428ZM7.27979 29.0182C6.9512 29.0182 6.73428 29.3332 6.73428 29.6543H7.03428C7.03428 29.4382 7.17167 29.3182 7.27979 29.3182V29.0182ZM17.9573 29.0182H7.27979V29.3182H17.9573V29.0182ZM17.3553 26.5505C17.3553 27.4993 17.52 28.4023 17.8162 29.2193L18.0983 29.1171C17.814 28.333 17.6553 27.4646 17.6553 26.5505H17.3553ZM22.7526 19.9509C19.7489 19.9509 17.3553 22.9417 17.3553 26.5505H17.6553C17.6553 23.0466 19.9695 20.2509 22.7526 20.2509V19.9509ZM25.2396 20.694C24.4964 20.2204 23.6503 19.9509 22.7526 19.9509V20.2509C23.5886 20.2509 24.3793 20.5015 25.0784 20.947L25.2396 20.694ZM25.009 17.5614V20.8205H25.309V17.5614H25.009ZM25.5545 16.9253C25.2259 16.9253 25.009 17.2403 25.009 17.5614H25.309C25.309 17.3453 25.4464 17.2253 25.5545 17.2253V16.9253ZM26.1 17.5614C26.1 17.2404 25.8834 16.9253 25.5545 16.9253V17.2253C25.6628 17.2253 25.8 17.3452 25.8 17.5614H26.1ZM22.7526 31.8777C20.4056 31.8777 18.4464 29.5183 18.4464 26.5505H18.1464C18.1464 29.6232 20.1851 32.1777 22.7526 32.1777V31.8777ZM27.0589 26.5505C27.0589 29.5183 25.0995 31.8777 22.7526 31.8777V32.1777C25.32 32.1777 27.3589 29.6232 27.3589 26.5505H27.0589ZM22.7526 21.2232C25.0995 21.2232 27.0589 23.5826 27.0589 26.5505H27.3589C27.3589 23.4777 25.32 20.9232 22.7526 20.9232V21.2232ZM18.4464 26.5505C18.4464 23.5826 20.4058 21.2232 22.7526 21.2232V20.9232C20.1853 20.9232 18.1464 23.4777 18.1464 26.5505H18.4464Z" fill="#253334"/>
<path fill-rule="evenodd" clip-rule="evenodd" d="M18.8677 26.5505C18.8677 23.9178 20.6104 21.7755 22.7525 21.7755C24.8944 21.7755 26.6371 23.9178 26.6371 26.5505C26.6371 29.1834 24.8946 31.3254 22.7525 31.3254C20.6104 31.3254 18.8677 29.1834 18.8677 26.5505ZM23.148 30.1118C23.148 30.1893 23.1328 30.2622 23.1066 30.3273C24.53 30.127 25.6622 28.7352 25.8253 26.9857C25.7724 27.0181 25.713 27.0366 25.65 27.0366H25.1682C24.9498 27.0366 24.7727 26.8191 24.7727 26.5505C24.7727 26.2818 24.9498 26.0643 25.1682 26.0643H25.65C25.713 26.0643 25.7724 26.0831 25.8253 26.1152C25.6624 24.3657 24.53 22.9739 23.1066 22.7736C23.1328 22.8387 23.148 22.9116 23.148 22.9891V23.5813C23.148 23.8499 22.9708 24.0674 22.7525 24.0674C22.5341 24.0674 22.357 23.8499 22.357 23.5813V22.9891C22.357 22.9116 22.372 22.8387 22.3984 22.7736C20.975 22.9739 19.8426 24.3657 19.6797 26.1152C19.7324 26.0831 19.792 26.0643 19.855 26.0643H20.3366C20.5552 26.0643 20.7321 26.2818 20.7321 26.5505C20.7321 26.8191 20.5552 27.0366 20.3366 27.0366H19.855C19.792 27.0366 19.7324 27.0181 19.6797 26.9857C19.8426 28.7352 20.975 30.127 22.3984 30.3273C22.372 30.2622 22.357 30.1893 22.357 30.1118V29.5196C22.357 29.2513 22.5341 29.0335 22.7525 29.0335C22.9708 29.0335 23.148 29.2513 23.148 29.5196V30.1118Z" fill="#253334"/>
<path d="M23.6247 26.0644H23.1484V25.5658C23.1484 25.2975 22.9713 25.0797 22.7529 25.0797C22.5344 25.0797 22.3574 25.2975 22.3574 25.5658V26.5505C22.3574 26.8191 22.5344 27.0366 22.7529 27.0366H23.6247C23.843 27.0366 24.0202 26.8191 24.0202 26.5505C24.0202 26.2819 23.843 26.0644 23.6247 26.0644Z" fill="#253334"/>
</svg>
