<svg width="34" height="30" viewBox="0 0 34 30" fill="none" xmlns="http://www.w3.org/2000/svg">
<path d="M10 23.5C8.16667 23.5 6.68333 24.775 6.68333 26.3334C6.68333 27.8917 8.16667 29.1667 10 29.1667C11.8333 29.1667 13.3333 27.8917 13.3333 26.3334C13.3333 24.775 11.8333 23.5 10 23.5ZM0 0.833374V3.66671H3.33333L9.33333 14.4192L7.08333 17.89C6.81667 18.2867 6.66667 18.7542 6.66667 19.25C6.66667 20.8084 8.16667 22.0834 10 22.0834H30V19.25H10.7C10.4667 19.25 10.2833 19.0942 10.2833 18.8959L10.3333 18.7259L11.8333 16.4167H24.25C25.5 16.4167 26.6 15.8359 27.1667 14.9575L33.1333 5.76337C33.2667 5.56504 33.3333 5.32421 33.3333 5.08337C33.3333 4.30421 32.5833 3.66671 31.6667 3.66671H7.01667L5.45 0.833374H0ZM26.6667 23.5C24.8333 23.5 23.35 24.775 23.35 26.3334C23.35 27.8917 24.8333 29.1667 26.6667 29.1667C28.5 29.1667 30 27.8917 30 26.3334C30 24.775 28.5 23.5 26.6667 23.5Z" fill="white"/>
</svg>
