<svg width="38" height="32" viewBox="0 0 38 32" fill="none" xmlns="http://www.w3.org/2000/svg">
<g clip-path="url(#clip0_178_1216)">
<path d="M12.3499 24.1569C10.6082 24.1569 9.19902 25.3569 9.19902 26.8235C9.19902 28.2902 10.6082 29.4902 12.3499 29.4902C14.0915 29.4902 15.5165 28.2902 15.5165 26.8235C15.5165 25.3569 14.0915 24.1569 12.3499 24.1569ZM2.84985 2.82355V5.49021H6.01652L11.7165 15.6102L9.57902 18.8769C9.32569 19.2502 9.18319 19.6902 9.18319 20.1569C9.18319 21.6235 10.6082 22.8235 12.3499 22.8235H31.3498V20.1569H13.0149C12.7932 20.1569 12.619 20.0102 12.619 19.8235L12.6665 19.6635L14.0915 17.4902H25.8874C27.0749 17.4902 28.1198 16.9435 28.6582 16.1169L34.3265 7.46355C34.4532 7.27688 34.5165 7.05021 34.5165 6.82355C34.5165 6.09021 33.804 5.49021 32.9332 5.49021H9.51569L8.02735 2.82355H2.84985ZM28.1832 24.1569C26.4415 24.1569 25.0324 25.3569 25.0324 26.8235C25.0324 28.2902 26.4415 29.4902 28.1832 29.4902C29.9249 29.4902 31.3498 28.2902 31.3498 26.8235C31.3498 25.3569 29.9249 24.1569 28.1832 24.1569Z" fill="#CBF3E8"/>
<path d="M20.7199 7.64003L20.7199 10.9L23.9599 10.9L24.1399 11.08L23.9999 12.7L20.7199 12.7L20.7199 16L19.0999 16.12L18.8999 15.96L18.8999 12.7L15.6399 12.7L15.4599 12.52L15.5999 10.9L18.8999 10.9L18.8999 7.58003L20.5199 7.44003L20.7199 7.64003Z" fill="#253334"/>
</g>
<defs>
<clipPath id="clip0_178_1216">
<rect width="38" height="32" fill="white" transform="translate(-0.00012207)"/>
</clipPath>
</defs>
</svg>
