<svg width="36" height="32" viewBox="0 0 36 32" fill="none" xmlns="http://www.w3.org/2000/svg">
<path d="M3.6 25.0984H7.2V31.5L16.3818 25.0984H25.2C27.1854 25.0984 28.8 23.6913 28.8 21.9611V9.41189C28.8 7.68167 27.1854 6.2746 25.2 6.2746H3.6C1.6146 6.2746 0 7.68167 0 9.41189V21.9611C0 23.6913 1.6146 25.0984 3.6 25.0984Z" fill="white"/>
<path d="M32.4 0H10.8C8.81455 0 7.19995 1.40708 7.19995 3.13729H28.8C30.7854 3.13729 32.4 4.54437 32.4 6.27459V18.8238C34.3854 18.8238 36 17.4167 36 15.6865V3.13729C36 1.40708 34.3854 0 32.4 0Z" fill="white"/>
</svg>
