<svg width="28" height="26" viewBox="0 0 28 26" fill="none" xmlns="http://www.w3.org/2000/svg">
<path d="M2.75 20H5.5V25.1013L12.5139 20H19.25C20.7666 20 22 18.8788 22 17.5V7.50003C22 6.12128 20.7666 5.00003 19.25 5.00003H2.75C1.23337 5.00003 0 6.12128 0 7.50003V17.5C0 18.8788 1.23337 20 2.75 20Z" fill="#CBF3E8"/>
<path d="M24.75 3.05176e-05H8.25C6.73337 3.05176e-05 5.5 1.12128 5.5 2.50003H22C23.5166 2.50003 24.75 3.62128 24.75 5.00003V15C26.2666 15 27.5 13.8788 27.5 12.5V2.50003C27.5 1.12128 26.2666 3.05176e-05 24.75 3.05176e-05Z" fill="#CBF3E8"/>
</svg>
