<svg width="32" height="32" viewBox="0 0 32 32" fill="none" xmlns="http://www.w3.org/2000/svg">
<path d="M16.4 16.2934C17.1115 15.6775 17.6821 14.9159 18.0732 14.0601C18.4643 13.2042 18.6667 12.2743 18.6667 11.3334C18.6667 9.56524 17.9643 7.86955 16.7141 6.61931C15.4638 5.36907 13.7682 4.66669 12 4.66669C10.2319 4.66669 8.53624 5.36907 7.286 6.61931C6.03575 7.86955 5.33337 9.56524 5.33337 11.3334C5.33336 12.2743 5.53578 13.2042 5.92688 14.0601C6.31797 14.9159 6.8886 15.6775 7.60004 16.2934C5.73356 17.1385 4.14999 18.5034 3.03868 20.2247C1.92737 21.9461 1.33534 23.9511 1.33337 26C1.33337 26.3536 1.47385 26.6928 1.7239 26.9428C1.97395 27.1929 2.31309 27.3334 2.66671 27.3334C3.02033 27.3334 3.35947 27.1929 3.60952 26.9428C3.85957 26.6928 4.00004 26.3536 4.00004 26C4.00004 23.8783 4.8429 21.8435 6.34319 20.3432C7.84348 18.8429 9.87831 18 12 18C14.1218 18 16.1566 18.8429 17.6569 20.3432C19.1572 21.8435 20 23.8783 20 26C20 26.3536 20.1405 26.6928 20.3906 26.9428C20.6406 27.1929 20.9798 27.3334 21.3334 27.3334C21.687 27.3334 22.0261 27.1929 22.2762 26.9428C22.5262 26.6928 22.6667 26.3536 22.6667 26C22.6647 23.9511 22.0727 21.9461 20.9614 20.2247C19.8501 18.5034 18.2665 17.1385 16.4 16.2934ZM12 15.3334C11.2089 15.3334 10.4356 15.0988 9.77776 14.6592C9.11996 14.2197 8.60727 13.595 8.30452 12.8641C8.00177 12.1332 7.92256 11.3289 8.0769 10.553C8.23124 9.77707 8.6122 9.06434 9.17161 8.50493C9.73102 7.94552 10.4438 7.56455 11.2197 7.41021C11.9956 7.25587 12.7999 7.33509 13.5308 7.63784C14.2617 7.94059 14.8864 8.45328 15.3259 9.11107C15.7654 9.76887 16 10.5422 16 11.3334C16 12.3942 15.5786 13.4116 14.8285 14.1618C14.0783 14.9119 13.0609 15.3334 12 15.3334ZM24.9867 15.76C25.84 14.7991 26.3974 13.6121 26.5918 12.3418C26.7862 11.0715 26.6093 9.77212 26.0824 8.60002C25.5555 7.42792 24.7011 6.43308 23.622 5.73525C22.5429 5.03742 21.2851 4.66634 20 4.66669C19.6464 4.66669 19.3073 4.80716 19.0572 5.05721C18.8072 5.30726 18.6667 5.6464 18.6667 6.00002C18.6667 6.35364 18.8072 6.69278 19.0572 6.94283C19.3073 7.19288 19.6464 7.33335 20 7.33335C21.0609 7.33335 22.0783 7.75478 22.8285 8.50493C23.5786 9.25507 24 10.2725 24 11.3334C23.9982 12.0337 23.8124 12.7212 23.4615 13.3272C23.1105 13.9333 22.6065 14.4365 22 14.7867C21.8024 14.9007 21.6373 15.0636 21.5205 15.2597C21.4038 15.4558 21.3394 15.6786 21.3334 15.9067C21.3278 16.133 21.38 16.3571 21.4849 16.5577C21.5899 16.7583 21.7442 16.9289 21.9334 17.0534L22.4534 17.4L22.6267 17.4934C24.2339 18.2556 25.5898 19.4613 26.5347 20.9684C27.4796 22.4755 27.9741 24.2213 27.96 26C27.96 26.3536 28.1005 26.6928 28.3506 26.9428C28.6006 27.1929 28.9398 27.3334 29.2934 27.3334C29.647 27.3334 29.9861 27.1929 30.2362 26.9428C30.4862 26.6928 30.6267 26.3536 30.6267 26C30.6376 23.9539 30.1251 21.939 29.138 20.1468C28.1509 18.3545 26.7218 16.8444 24.9867 15.76Z" fill="#253334"/>
</svg>
