<svg width="47" height="41" viewBox="0 0 47 41" fill="none" xmlns="http://www.w3.org/2000/svg">
<path fill-rule="evenodd" clip-rule="evenodd" d="M13.1824 8.4296C12.6485 9.14027 11.7493 9.56667 10.787 9.56667C9.82461 9.56667 8.92545 9.14027 8.3915 8.4296C7.94384 7.83442 7.70499 7.13537 7.70499 6.41992V6.3222C7.70499 5.75982 7.85292 5.20495 8.13646 4.70133L10.787 0L13.4374 4.70133C13.721 5.20427 13.8689 5.75913 13.8689 6.32152V6.41923C13.8689 7.13468 13.6301 7.83442 13.1824 8.4296ZM26.967 0.683332H30.049V3.41667H26.967V0.683332ZM34.6723 4.78332H22.3445V6.14999H34.6723V4.78332ZM28.6777 28.9563C28.492 29.1619 28.4558 29.4428 28.5844 29.6799C28.7124 29.9157 28.9828 30.0667 29.2787 30.0667H32.0416L27.2307 34.3334L28.4111 32.4481C28.5444 32.2369 28.5405 31.9786 28.4018 31.7702C28.2632 31.5618 28.0104 31.4333 27.7377 31.4333H24.6904L28.8857 26.65H30.758L28.6777 28.9563ZM36.2133 21.1833H20.8035V22.55H36.2133V21.1833ZM35.103 7.51667H21.9137C20.2071 9.12592 19.2625 11.2128 19.2625 13.4323V18.8504L20.3519 19.8167H36.6648L37.7543 18.8504V13.4323C37.7543 11.2128 36.8096 9.12592 35.103 7.51667ZM20.3519 23.9167L19.2625 24.8829V36.3342C19.2625 37.3981 19.7294 38.3985 20.5777 39.1502C21.426 39.9026 22.554 40.3167 23.7537 40.3167H33.2638C34.4635 40.3167 35.5915 39.9026 36.4398 39.1502C37.2874 38.3979 37.7543 37.3981 37.7543 36.3342V24.8829L36.6648 23.9167H20.3519ZM34.4462 29.8664L24.4298 38.7498C24.2803 38.8823 24.083 38.95 23.885 38.95C23.7232 38.95 23.5599 38.9049 23.4212 38.8126C23.1145 38.607 23.0252 38.2325 23.2116 37.9352L26.4276 32.8H23.1145C22.8202 32.8 22.5521 32.651 22.4226 32.4166C22.294 32.1823 22.3263 31.9028 22.5066 31.6964L27.9001 25.5464C28.0457 25.381 28.2699 25.2833 28.508 25.2833H32.3604C32.6563 25.2833 32.9267 25.4343 33.0546 25.6701C33.1833 25.9072 33.1471 26.1881 32.9614 26.3937L30.8819 28.7H33.9014C34.2127 28.7 34.4939 28.866 34.6133 29.1216C34.7328 29.3772 34.6665 29.671 34.4462 29.8664ZM40.0655 17.0833H38.5245V15.7167H40.0655C43.0396 15.7167 45.4589 13.571 45.4589 10.9333C45.4589 8.29566 43.0396 6.14999 40.0655 6.14999H35.4425V4.78332H40.0655C43.8887 4.78332 46.9999 7.54262 46.9999 10.9333C46.9999 14.324 43.8887 17.0833 40.0655 17.0833ZM10.787 41C11.7493 41 12.6485 40.5736 13.1824 39.8629C13.6301 39.2677 13.8689 38.568 13.8689 37.8526V37.7548C13.8689 37.1925 13.721 36.6376 13.4374 36.1347L10.787 31.4333L8.13646 36.1347C7.85292 36.6383 7.70499 37.1931 7.70499 37.7555V37.8532C7.70499 38.5687 7.94384 39.2677 8.3915 39.8629C8.92545 40.5736 9.82461 41 10.787 41ZM5.47743 24.1463C4.94348 24.8569 4.04431 25.2833 3.08197 25.2833C2.11962 25.2833 1.22046 24.8569 0.686508 24.1463C0.238852 23.5511 0 22.852 0 22.1366V22.0389C0 21.4765 0.147934 20.9216 0.431475 20.418L3.08197 15.7167L5.73246 20.418C6.016 20.9209 6.16393 21.4758 6.16393 22.0382V22.1359C6.16393 22.8514 5.92508 23.5511 5.47743 24.1463Z" fill="#253334"/>
</svg>
