<svg width="30" height="33" viewBox="0 0 30 33" fill="none" xmlns="http://www.w3.org/2000/svg">
<path d="M9.375 15.1257C11.7875 15.1257 13.75 12.967 13.75 10.3132C13.75 7.65948 11.7875 5.50073 9.375 5.50073C6.9625 5.50073 5 7.65948 5 10.3132C5 12.967 6.9625 15.1257 9.375 15.1257ZM9.375 8.25073C10.4125 8.25073 11.25 9.17198 11.25 10.3132C11.25 11.4545 10.4125 12.3757 9.375 12.3757C8.3375 12.3757 7.5 11.4545 7.5 10.3132C7.5 9.17198 8.3375 8.25073 9.375 8.25073Z" fill="black"/>
<path d="M23.2375 5.49398L5.00317 25.5518L6.77092 27.4963L25.0053 7.43851L23.2375 5.49398Z" fill="black"/>
<path d="M20.625 17.875C18.2125 17.875 16.25 20.0337 16.25 22.6875C16.25 25.3412 18.2125 27.5 20.625 27.5C23.0375 27.5 25 25.3412 25 22.6875C25 20.0337 23.0375 17.875 20.625 17.875ZM20.625 24.75C19.5875 24.75 18.75 23.8287 18.75 22.6875C18.75 21.5462 19.5875 20.625 20.625 20.625C21.6625 20.625 22.5 21.5462 22.5 22.6875C22.5 23.8287 21.6625 24.75 20.625 24.75Z" fill="black"/>
</svg>
