<svg width="47" height="24" viewBox="0 0 47 24" fill="none" xmlns="http://www.w3.org/2000/svg">
<path d="M38.8962 4.22196L38.9119 0.424539L35.1145 0.440284L35.0752 9.92056L12.3172 10.0149L12.3565 0.534649L8.5591 0.550394L8.54336 4.34782L4.74594 4.36356L4.72237 10.0464L0.924951 10.0622L0.909205 13.8596L4.70663 13.8438L4.68306 19.5267L8.48048 19.5109L8.46474 23.3084L12.2622 23.2926L12.3015 13.8123L35.0594 13.718L35.0201 23.1983L38.8176 23.1825L38.8333 19.3851L42.6307 19.3693L42.6543 13.6865L46.4517 13.6707L46.4675 9.87332L42.67 9.88907L42.6936 4.20622L38.8962 4.22196Z" fill="white"/>
</svg>
