<svg width="35" height="27" viewBox="0 0 35 27" fill="none" xmlns="http://www.w3.org/2000/svg">
<path d="M30.6248 5.625H4.37484C3.98806 5.625 3.61713 5.74353 3.34364 5.95451C3.07015 6.16548 2.9165 6.45163 2.9165 6.75V11.25H4.2188C5.6713 11.25 7.0188 12.0161 7.25213 13.122C7.32321 13.4449 7.30209 13.7759 7.19024 14.0919C7.0784 14.4079 6.87851 14.7012 6.60455 14.9514C6.33058 15.2016 5.98913 15.4027 5.60402 15.5407C5.21891 15.6786 4.79943 15.75 4.37484 15.75H2.9165V20.25C2.9165 20.5484 3.07015 20.8345 3.34364 21.0455C3.61713 21.2565 3.98806 21.375 4.37484 21.375H30.6248C31.0116 21.375 31.3825 21.2565 31.656 21.0455C31.9295 20.8345 32.0832 20.5484 32.0832 20.25V15.75H30.6248C30.2002 15.75 29.7808 15.6786 29.3957 15.5407C29.0105 15.4027 28.6691 15.2016 28.3951 14.9514C28.1212 14.7012 27.9213 14.4079 27.8094 14.0919C27.6976 13.7759 27.6765 13.4449 27.7475 13.122C27.9809 12.0161 29.3284 11.25 30.7809 11.25H32.0832V6.75C32.0832 6.45163 31.9295 6.16548 31.656 5.95451C31.3825 5.74353 31.0116 5.625 30.6248 5.625ZM13.1248 10.125C13.5116 10.125 13.8825 10.2435 14.156 10.4545C14.4295 10.6655 14.5832 10.9516 14.5832 11.25C14.5832 11.5484 14.4295 11.8345 14.156 12.0455C13.8825 12.2565 13.5116 12.375 13.1248 12.375C12.7381 12.375 12.3671 12.2565 12.0936 12.0455C11.8201 11.8345 11.6665 11.5484 11.6665 11.25C11.6665 10.9516 11.8201 10.6655 12.0936 10.4545C12.3671 10.2435 12.7381 10.125 13.1248 10.125ZM11.9582 17.325L20.7082 8.325L23.0415 9.675L14.2915 18.675L11.9582 17.325ZM21.8748 16.875C21.4881 16.875 21.1171 16.7565 20.8436 16.5455C20.5701 16.3345 20.4165 16.0484 20.4165 15.75C20.4165 15.4516 20.5701 15.1655 20.8436 14.9545C21.1171 14.7435 21.4881 14.625 21.8748 14.625C22.2616 14.625 22.6325 14.7435 22.906 14.9545C23.1795 15.1655 23.3332 15.4516 23.3332 15.75C23.3332 16.0484 23.1795 16.3345 22.906 16.5455C22.6325 16.7565 22.2616 16.875 21.8748 16.875Z" fill="#253334"/>
</svg>
